<svg width="1200" height="630" viewBox="0 0 1200 630" fill="none" xmlns="http://www.w3.org/2000/svg">
  <rect width="1200" height="630" rx="36" fill="#FFF8EF"/>
  <circle cx="143" cy="112" r="98" fill="#FFD978" fill-opacity="0.42"/>
  <circle cx="1034" cy="498" r="132" fill="#EBC08C" fill-opacity="0.28"/>
  <rect x="72" y="74" width="128" height="128" rx="38" fill="#FFF6E5"/>
  <rect x="72.75" y="74.75" width="126.5" height="126.5" rx="37.25" stroke="#E8D6B7" stroke-width="1.5"/>
  <circle cx="136" cy="138" r="32" fill="#5B3A24"/>
  <ellipse cx="118" cy="129" rx="11" ry="9" fill="#FFF1CD"/>
  <ellipse cx="136" cy="118" rx="11" ry="9" fill="#FCE4B4"/>
  <ellipse cx="154" cy="129" rx="11" ry="9" fill="#F7DAA1"/>
  <ellipse cx="125" cy="147" rx="11" ry="9" fill="#FAE6BB"/>
  <ellipse cx="147" cy="147" rx="11" ry="9" fill="#F3D39A"/>
  <path d="M103 165C114 159 125 156 136 156C147 156 158 159 169 165" stroke="#D8A84F" stroke-width="4.5" stroke-linecap="round"/>
  <path d="M95 249H492" stroke="#E7D5B9" stroke-width="2"/>
  <text x="72" y="278" fill="#A07A56" font-family="Arial, sans-serif" font-size="22" font-weight="700" letter-spacing="6">PREMIUM INDIAN SNACKING</text>
  <text x="72" y="360" fill="#38261A" font-family="Arial, sans-serif" font-size="78" font-weight="800">Snack Smart</text>
  <text x="72" y="438" fill="#38261A" font-family="Arial, sans-serif" font-size="78" font-weight="800">with Makhana</text>
  <text x="72" y="502" fill="#6E5848" font-family="Arial, sans-serif" font-size="32">Healthy. Crunchy. Delicious.</text>
  <rect x="706" y="72" width="420" height="486" rx="68" fill="url(#card)"/>
  <ellipse cx="916" cy="516" rx="132" ry="28" fill="#2A170D" fill-opacity="0.18"/>
  <path d="M786 444C786 499.228 843.307 544 914 544C984.693 544 1042 499.228 1042 444V404H786V444Z" fill="url(#bowl)"/>
  <ellipse cx="914" cy="404" rx="128" ry="44" fill="#8E5F3C"/>
  <ellipse cx="914" cy="394" rx="114" ry="34" fill="#FFF3D7"/>
  <ellipse cx="862" cy="366" rx="18" ry="14" fill="#FFF8EA"/>
  <ellipse cx="902" cy="348" rx="18" ry="14" fill="#F9E4B8"/>
  <ellipse cx="940" cy="350" rx="18" ry="14" fill="#F7DCA5"/>
  <ellipse cx="976" cy="368" rx="18" ry="14" fill="#FFF0CB"/>
  <ellipse cx="840" cy="392" rx="18" ry="14" fill="#F6DEAD"/>
  <ellipse cx="880" cy="392" rx="18" ry="14" fill="#FFF6DF"/>
  <ellipse cx="920" cy="392" rx="18" ry="14" fill="#F4D69E"/>
  <ellipse cx="960" cy="392" rx="18" ry="14" fill="#FFF1CF"/>
  <ellipse cx="1000" cy="392" rx="18" ry="14" fill="#F0D198"/>
  <defs>
    <linearGradient id="card" x1="754" y1="92" x2="1096" y2="540" gradientUnits="userSpaceOnUse">
      <stop stop-color="#3F2819"/>
      <stop offset="0.52" stop-color="#6E4831"/>
      <stop offset="1" stop-color="#23140D"/>
    </linearGradient>
    <linearGradient id="bowl" x1="914" y1="404" x2="914" y2="544" gradientUnits="userSpaceOnUse">
      <stop stop-color="#9C6B47"/>
      <stop offset="1" stop-color="#543523"/>
    </linearGradient>
  </defs>
</svg>
