<svg width="720" height="520" viewBox="0 0 720 520" fill="none" xmlns="http://www.w3.org/2000/svg">
  <rect width="720" height="520" rx="40" fill="#FFF8EF"/>
  <circle cx="124" cy="106" r="82" fill="#FFD978" fill-opacity="0.28"/>
  <circle cx="600" cy="390" r="74" fill="#E7C89D" fill-opacity="0.24"/>
  <ellipse cx="360" cy="432" rx="146" ry="28" fill="#2A170D" fill-opacity="0.14"/>
  <path d="M220 360C220 423.513 282.68 475 360 475C437.32 475 500 423.513 500 360V319H220V360Z" fill="url(#bowl)"/>
  <ellipse cx="360" cy="319" rx="140" ry="48" fill="#875A38"/>
  <ellipse cx="360" cy="309" rx="124" ry="36" fill="#FFF1D0"/>
  <ellipse cx="310" cy="284" rx="18" ry="14" fill="#FFF8EA"/>
  <ellipse cx="350" cy="264" rx="18" ry="14" fill="#FCE6BA"/>
  <ellipse cx="390" cy="264" rx="18" ry="14" fill="#F8DCA4"/>
  <ellipse cx="430" cy="284" rx="18" ry="14" fill="#FFF1CF"/>
  <ellipse cx="286" cy="314" rx="18" ry="14" fill="#F7DEAB"/>
  <ellipse cx="326" cy="314" rx="18" ry="14" fill="#FFF6DF"/>
  <ellipse cx="366" cy="314" rx="18" ry="14" fill="#F3D49C"/>
  <ellipse cx="406" cy="314" rx="18" ry="14" fill="#FFF2D1"/>
  <ellipse cx="446" cy="314" rx="18" ry="14" fill="#EECE95"/>
  <path d="M260 210C294.667 164 328 141 360 141C392 141 425.333 164 460 210" stroke="#D79B45" stroke-width="8" stroke-linecap="round" stroke-dasharray="2 18"/>
  <path d="M248 228C260 232 270 240 278 252" stroke="#6B923F" stroke-width="8" stroke-linecap="round"/>
  <path d="M478 240C466 246 456 255 448 268" stroke="#C46B34" stroke-width="8" stroke-linecap="round"/>
  <defs>
    <linearGradient id="bowl" x1="360" y1="319" x2="360" y2="475" gradientUnits="userSpaceOnUse">
      <stop stop-color="#9C6B47"/>
      <stop offset="1" stop-color="#543523"/>
    </linearGradient>
  </defs>
</svg>
